<svg width="31" height="31" viewBox="0 0 31 31" fill="none" xmlns="http://www.w3.org/2000/svg">
<rect width="31" height="31" rx="15.5" fill="#1A1A1A"/>
<path d="M23.2888 11.7786C23.2224 11.7116 23.1434 11.6585 23.0564 11.6222C22.9694 11.586 22.876 11.5673 22.7818 11.5673C22.6875 11.5673 22.5942 11.586 22.5071 11.6222C22.4201 11.6585 22.3412 11.7116 22.2748 11.7786L21.3536 12.7071V8.71429C21.3536 8.52485 21.2784 8.34316 21.1444 8.20921C21.0105 8.07525 20.8289 8 20.6395 8C20.4501 8 20.2685 8.07525 20.1346 8.20921C20.0007 8.34316 19.9254 8.52485 19.9254 8.71429V12.7071L19.0042 11.7786C18.8698 11.6441 18.6874 11.5685 18.4972 11.5685C18.3071 11.5685 18.1247 11.6441 17.9902 11.7786C17.8558 11.9131 17.7802 12.0955 17.7802 12.2857C17.7802 12.4759 17.8558 12.6584 17.9902 12.7929L20.1325 14.9357C20.2004 15.0007 20.2805 15.0517 20.3682 15.0857C20.4536 15.1235 20.5461 15.143 20.6395 15.143C20.733 15.143 20.8254 15.1235 20.9109 15.0857C20.9985 15.0517 21.0786 15.0007 21.1465 14.9357L23.2888 12.7929C23.3557 12.7265 23.4088 12.6475 23.4451 12.5604C23.4813 12.4734 23.5 12.38 23.5 12.2857C23.5 12.1914 23.4813 12.0981 23.4451 12.011C23.4088 11.924 23.3557 11.845 23.2888 11.7786V11.7786ZM20.6395 16.5714C20.4501 16.5714 20.2685 16.6467 20.1346 16.7806C20.0007 16.9146 19.9254 17.0963 19.9254 17.2857V17.5571L18.8686 16.5C18.4954 16.1297 17.991 15.9219 17.4654 15.9219C16.9397 15.9219 16.4354 16.1297 16.0622 16.5L15.5623 17L13.7914 15.2286C13.413 14.8683 12.9106 14.6673 12.3882 14.6673C11.8658 14.6673 11.3634 14.8683 10.985 15.2286L9.92818 16.2857V12.2857C9.92818 12.0963 10.0034 11.9146 10.1373 11.7806C10.2712 11.6467 10.4529 11.5714 10.6423 11.5714H16.355C16.5444 11.5714 16.726 11.4962 16.8599 11.3622C16.9938 11.2283 17.0691 11.0466 17.0691 10.8571C17.0691 10.6677 16.9938 10.486 16.8599 10.3521C16.726 10.2181 16.5444 10.1429 16.355 10.1429H10.6423C10.0741 10.1429 9.52921 10.3686 9.12746 10.7705C8.7257 11.1723 8.5 11.7174 8.5 12.2857V20.8571C8.5 21.4255 8.7257 21.9705 9.12746 22.3724C9.52921 22.7742 10.0741 23 10.6423 23H19.2113C19.7795 23 20.3244 22.7742 20.7261 22.3724C21.1279 21.9705 21.3536 21.4255 21.3536 20.8571V17.2857C21.3536 17.0963 21.2784 16.9146 21.1444 16.7806C21.0105 16.6467 20.8289 16.5714 20.6395 16.5714ZM10.6423 21.5714C10.4529 21.5714 10.2712 21.4962 10.1373 21.3622C10.0034 21.2283 9.92818 21.0466 9.92818 20.8571V18.3071L11.999 16.2357C12.1039 16.1357 12.2433 16.0799 12.3882 16.0799C12.5331 16.0799 12.6725 16.1357 12.7774 16.2357L15.0411 18.5L18.1116 21.5714H10.6423ZM19.9254 20.8571C19.9244 20.9939 19.8793 21.1266 19.7969 21.2357L16.5763 18L17.0762 17.5C17.1274 17.4477 17.1885 17.4062 17.2559 17.3779C17.3234 17.3495 17.3958 17.3349 17.469 17.3349C17.5421 17.3349 17.6145 17.3495 17.682 17.3779C17.7494 17.4062 17.8105 17.4477 17.8617 17.5L19.9254 19.5786V20.8571Z" fill="white"/>
</svg>
